<svg class="svg-icon" style="width: 1em; height: 1em;vertical-align: middle;fill: currentColor;overflow: hidden;" viewBox="0 0 1024 1024" version="1.1" xmlns="http://www.w3.org/2000/svg"><path d="M850.5 373.5c0-35.7-20.3-66.3-49.4-74.3L525 222.9c-4.7-1.2-9.4-1.9-14.1-1.9-4.8 0-9.5 0.6-14.3 1.9l-275.9 76.2c-29.1 8-49.4 38.6-49.4 74.3 0 35.7 20.3 66.3 49.4 74.3l56.8 15.7v214.8c0 67.4 64.4 127 233.5 127s233.5-59.6 233.5-127V463.5l56.8-15.7c29-8 49.2-38.6 49.2-74.3zM702 678.3c0 28-63.7 76.2-191 76.2s-191-48.2-191-76.2V475.2l176.9 48.9c4.7 1.2 9.4 1.8 14.1 1.8 4.8 0 9.5-0.6 14.3-1.9L702 475.2v203.1zM515.8 474.5c-1.6 0.5-3.3 0.7-4.9 0.7s-3.2-0.2-4.8-0.7l-275.8-76.2c-9.6-2.7-16.5-12.9-16.5-24.8 0-11.8 6.8-22.1 16.5-24.8l275.8-76.1c1.6-0.5 3.2-0.7 4.8-0.7 1.6 0 3.2 0.2 4.9 0.7l275.8 76.2c9.7 2.7 16.5 13 16.5 24.8s-6.8 22.1-16.5 24.8l-275.8 76.1z m271.1 26v228.7c0 14.1 9.5 25.4 21.2 25.4 11.8 0 21.2-11.3 21.2-25.4V500.5c0-14.1-9.5-25.4-21.2-25.4-11.7 0.1-21.2 11.3-21.2 25.4z"  /></svg>